# xmcd
#
# Track frame offsets: 
#        150
#        18788
#        32229
#        49146
#        70006
#        77417
#        94250
#        114338
#        133185
#        149552
#        164733
#        184346
#        202713
#        220284
#        237974
#        253755
#
# Disc length: 3831 seconds
#
# Revision: 3
# Processed by: cddbd v1.5.2PL0 Copyright (c) Steve Scherf et al.
# Submitted via: ExactAudioCopy v0.99pb5
#
DISCID=e40ef510
DTITLE=Chip Taylor - London Sessions Bootleg, The [CD 2)
DYEAR=1999
DGENRE=Americana
TTITLE0=Same Old Fools
TTITLE1=I Ain't Leaving Without You
TTITLE2=Dalton Days
TTITLE3=Hard Drive Times
TTITLE4=Intro Commentary
TTITLE5=The Ghost Of Phil Sinclair (duet with Lucinda Willaims)
TTITLE6=Back In '98 (with Evie Sands)
TTITLE7=Bigot's Graveyard
TTITLE8=Curve Ball
TTITLE9=Unstable Man
TTITLE10=Lefty Frizzell
TTITLE11=Three Alarm Fire
TTITLE12=Shang-A-Lang A Rainbow
TTITLE13=Joan Lit The Candle
TTITLE14=Texas Friend
TTITLE15=We Just Roll On (with Zoe Zack)
EXTD=
EXTT0=
EXTT1=
EXTT2=
EXTT3=
EXTT4=
EXTT5=
EXTT6=
EXTT7=
EXTT8=
EXTT9=
EXTT10=
EXTT11=
EXTT12=
EXTT13=
EXTT14=
EXTT15=
PLAYORDER=
